# xmcd
#
# Track frame offsets: 
#        150
#        10607
#        21107
#        33165
#        42907
#        53905
#        72445
#        83173
#        96164
#        117651
#        129975
#        144091
#        165297
#        170505
#        181932
#
# Disc length: 2586 seconds
#
# Revision: 1
# Processed by: cddbd v1.5.2PL0 Copyright (c) Steve Scherf et al.
# Submitted via: ExactAudioCopy v1.0b3
#
DISCID=b70a180f
DTITLE=Various Artist - Mojo: Stooges Jukebox
DYEAR=2007
DGENRE=Rock
TTITLE0=The Trashmen - Surfin' Bird
TTITLE1=Little Richard - Tutti Frutti
TTITLE2=Jerry Lee Lewis - Breathless
TTITLE3=Eddie Cochran - Cotton Picker
TTITLE4=The Wailers - Tall Cool One
TTITLE5=Dennis Coffey - Scorpio
TTITLE6=Link Wray - Rumble
TTITLE7=Howlin' Wolf - Moanin' At Midnight
TTITLE8=Junior Kimbrough And The Soul Blues Boys - Crawling King Snake
TTITLE9=John Lee Hooker - Drug Store Woman
TTITLE10=Bo Diddley - Say Man
TTITLE11=The Mothers - Help, I'm A Rock
TTITLE12=The Last Poets - Run Nigger
TTITLE13=Cannibal and The Headhunters - Land Of 1000 Dances
TTITLE14=MC5 - Looking At You
EXTD=Mojo Magazine, April, 2007
EXTT0=
EXTT1=
EXTT2=
EXTT3=
EXTT4=
EXTT5=
EXTT6=
EXTT7=
EXTT8=
EXTT9=
EXTT10=
EXTT11=
EXTT12=
EXTT13=
EXTT14=
PLAYORDER=
